<?xml version="1.0" encoding="utf-8"?>
<!-- Generator: Adobe Illustrator 16.0.0, SVG Export Plug-In . SVG Version: 6.00 Build 0)  -->
<!DOCTYPE svg PUBLIC "-//W3C//DTD SVG 1.1//EN" "http://www.w3.org/Graphics/SVG/1.1/DTD/svg11.dtd">
<svg version="1.1" id="Layer_1" xmlns="http://www.w3.org/2000/svg" xmlns:xlink="http://www.w3.org/1999/xlink" x="0px" y="0px"
	 width="180px" height="180.25px" viewBox="0 0 180 180.25" enable-background="new 0 0 180 180.25" xml:space="preserve">
<g>
	<polygon fill="#231F20" points="74.5,103.05 49.167,12.625 134.834,10.625 165.5,90.125 	"/>
</g>
<g>
	<path fill="#231F20" d="M30.833,22.625l22.333,87v7.667l-22.333,38.666c0,0-13.333-40.237-13.333-41.619
		c0-1.381-13.333-39.047-13.333-39.047s11.667-31.667,13.667-32.667S30.833,22.625,30.833,22.625z"/>
</g>
<g>
	<rect x="41.5" y="86.875" fill="#231F20" width="37.75" height="59.5"/>
	<path d="M81.75,148.875H39v-64.5h42.75V148.875z M44,143.875h32.75v-54.5H44V143.875z"/>
</g>
<g>
	<path fill="#231F20" d="M65.833,150.958c0,0,18.333-25.666,20.333-25.666s45,0,45,0l-5.333,22.666l-49,5.334L65.833,150.958z"/>
</g>
<g>
	<path fill="#231F20" d="M33.941,24.295C34.343,25.626,34.295,25.361,33.941,24.295L33.941,24.295z M161.637,103.586
		c-27.738,4.264-55.425,8.836-83.143,13.214c-11.161,1.763-19.485,6.675-24.62,17.499c-6.128,12.916-18.054,34.855-18.397,35.786
		c-0.343,0.933-0.543,1.33,0,2.507c0.642,1.695,6.69,1.61,10.791,0.749c25.012-5.254,49.984-9.707,74.889-15.433
		c7.142-1.643,13.417-5.141,18.235-11.192c9.084-11.405,18.653-22.422,27.799-33.778c2.025-2.513,4.963-6.877,4.65-8.687
		C171.534,102.441,164.926,103.08,161.637,103.586z M92.803,143.938c-1.068-5.271,18.17-11.955,19.256-7.746
		C113.145,140.398,93.874,149.216,92.803,143.938z M142.98,15.414c-2.932-6.293-8.074-10.422-14.105-10.585
		S70.349,5.015,48.679,5.117C36.636,5.173,33.483,9.538,36.753,21.17c7.366,26.197,14.691,52.406,22.062,78.604
		c3.051,10.851,11.891,16.104,22.876,14.172c28.232-4.967,56.479-9.807,84.744-14.59c10.191-1.725,13.004-6.291,8.674-15.604
		C164.497,60.921,153.617,38.227,142.98,15.414z M56.981,23.079c0.036-5.583,4.086-6.563,7.988-6.938
		c7.051,0.043,13.77,5.178,13.479,10.252c-0.291,4.996-4.04,6.484-8.272,6.684C63.864,33.37,56.951,28.092,56.981,23.079z
		 M89.034,94.812c-6.841-0.338-13.097-6.076-13.021-11.943c0.072-5.369,4.56-9.055,10.667-8.764
		c6.797,0.326,12.842,6.146,12.684,12.226C99.232,91.417,94.749,95.098,89.034,94.812z M109.471,60.438
		c-6.453,0.008-12.877-5.959-12.388-11.459c0.453-5.104,3.983-6.334,8.358-6.207c6.459,0.197,12.349,5.576,12.14,11.604
		C117.118,58.72,113.893,60.434,109.471,60.438z M123.948,30.645c-5.644-0.064-12.449-5.432-11.608-9.877
		c0.109-1.76,1.128-4.558,4.27-5.539c4.136-0.776,8.789,1.555,11.604,4.527c1.681,1.646,2.653,3.544,2.569,5.346
		C130.593,29.223,127.693,30.686,123.948,30.645z M149.67,86.607c-7.225,0.851-14.953-6.033-14.941-11.66
		c0.01-4.971,2.918-7.035,7.604-7.012c6.117,0.022,12.455,6.188,12.174,11.722C154.352,82.641,153.887,85.126,149.67,86.607z
		 M55.025,102.593L33.939,24.289c0,0.002,0.001,0.004,0.002,0.006c-0.001-0.005-0.003-0.009-0.004-0.014l-0.01-0.032l0,0
		c-0.819-2.494-2.918-12.536-5.476-11.337c-0.92,0.431-3.698,6.219-3.698,6.219c-6.332,12.855-13.47,28.807-19.91,41.611
		c-3.417,6.801-3.138,13.753-1.084,20.583c7.773,25.854,15.786,51.636,23.865,77.397c0.775,2.467,2.615,8.496,4.82,8.31
		c3.203-1.212,20.87-40.397,20.87-40.397C57.568,118.744,57.283,110.604,55.025,102.593z M13.391,85.062
		c-2.174,0.246-4.451-4.071-5.086-9.65c-0.635-5.575,0.613-10.297,2.787-10.545c2.174-0.247,4.452,4.072,5.087,9.65
		C16.813,80.096,15.565,84.814,13.391,85.062z M30.681,142.432c-4.693-0.115-6.651-18.324-2.649-19.529
		C34.147,122.902,35.499,141.312,30.681,142.432z M31.007,60.969c-4.6,0.59-7.639-17.152-2.624-20.476
		C33.937,39.465,35.607,60.379,31.007,60.969z M47.549,118.212c-3.777,4.172-9.358-14.19-4.902-19.726
		C47.103,92.952,53.327,112.561,47.549,118.212z"/>
	<path d="M40.439,176.441C40.438,176.441,40.438,176.441,40.439,176.441c-2.619,0-6.204-0.3-7.261-2.866
		c-2.428-3.075-6.315-8.928-7.886-13.936l-0.053-0.168c-7.126-22.725-15.536-49.694-23.874-77.427
		c-2.525-8.398-2.118-15.733,1.244-22.425c3.503-6.965,7.266-14.975,10.904-22.722c3.006-6.399,6.114-13.017,8.998-18.871
		c3.153-6.57,1.773-4.104,4.881-7.378s4.442-3.524,4.442-3.524c2.083-2.083,9.877-4.475,16.834-4.507
		c5.004-0.023,11.653-0.06,18.994-0.101c18.538-0.102,41.608-0.23,53.623-0.23c4.067,0,6.572,0.015,7.658,0.044
		c6.786,0.184,12.881,4.68,16.305,12.028c5.037,10.805,10.217,21.768,15.227,32.37c5.563,11.776,11.316,23.952,16.902,35.97
		c2.471,5.312,2.848,9.461,1.154,12.682l-3.224,8.452c0,0-1.744,3.23-6.169,10.675c-4.277,5.312-8.714,10.629-13.005,15.771
		c-4.894,5.866-9.954,11.932-14.785,17.996c-4.887,6.138-11.491,10.199-19.63,12.071c-15.442,3.55-31.16,6.661-46.359,9.671
		c-9.365,1.854-19.049,3.771-28.577,5.771C44.803,176.203,42.491,176.441,40.439,176.441z M37.731,171.194
		c0.467,0.116,1.334,0.247,2.707,0.247c0,0,0,0,0,0c1.696,0,3.684-0.204,5.315-0.547c9.555-2.008,19.253-3.928,28.633-5.784
		c15.163-3.002,30.842-6.105,46.209-9.639c7.01-1.612,12.675-5.082,16.84-10.313c4.866-6.109,9.945-12.197,14.857-18.084
		c4.277-5.126,8.699-10.426,12.95-15.705c1.754-2.176,3.147-4.409,3.77-5.776c-0.312-0.025-0.703-0.043-1.192-0.043
		c-2.329,0-5.031,0.389-5.805,0.507c-17.02,2.616-34.308,5.396-51.027,8.082c-10.7,1.72-21.4,3.439-32.105,5.131
		c-11.299,1.784-18.315,6.75-22.751,16.101c-4.217,8.889-11.096,21.896-15.206,29.668c-1.586,2.998-2.955,5.588-3.141,6.002
		l-0.017,0.053C37.757,171.128,37.744,171.161,37.731,171.194z M28.915,16.543c-0.581,1.025-1.283,2.367-1.908,3.669
		c-2.874,5.835-5.972,12.431-8.968,18.81C14.386,46.8,10.609,54.841,7.076,61.866C4.315,67.36,4.014,73.49,6.153,80.605
		c8.331,27.708,16.734,54.659,23.856,77.369l0.053,0.169c0.921,2.938,1.609,4.578,2.099,5.492
		c3.347-5.006,11.746-22.22,18.873-38.028l0.079-0.159c3.475-6.446,3.954-13.493,1.505-22.177L31.58,25.142l-0.14-0.307v-0.164
		c-0.139-0.461-0.303-1.059-0.489-1.742C30.606,21.663,29.743,18.493,28.915,16.543z M58.249,105.224
		c1.551,7.37,1.069,13.951-1.465,19.954c3.702-4.273,8.392-7.294,14.243-9.188C65.452,114.406,60.995,110.663,58.249,105.224z
		 M121.284,7.286c-12.001,0-35.063,0.128-53.595,0.23c-7.343,0.041-13.993,0.078-18.999,0.101c-5.195,0.024-8.362,0.888-9.684,2.64
		c-1.336,1.771-1.286,5.12,0.152,10.236c3.493,12.422,6.976,24.846,10.459,37.27c3.863,13.779,7.727,27.558,11.603,41.333
		c2.277,8.098,8.145,12.742,16.1,12.742h0c1.27,0,2.594-0.119,3.937-0.355c25.34-4.458,52.274-9.095,84.76-14.593
		c4.421-0.748,7.142-2.039,8.086-3.837c0.906-1.723,0.481-4.498-1.262-8.248c-5.58-12.004-11.33-24.173-16.89-35.942
		c-5.013-10.607-10.194-21.576-15.238-32.394c-2.606-5.594-7.058-9.011-11.907-9.143C127.781,7.3,125.25,7.286,121.284,7.286z
		 M95.722,148.073c-4.297,0-5.195-2.785-5.369-3.639c-0.219-1.079-0.154-2.762,1.394-4.654c3.266-3.994,12.271-7.416,17.354-7.416
		c3.961,0,5.07,2.007,5.379,3.202c0.242,0.941,0.244,2.436-1.131,4.21C110.285,143.731,101.06,148.073,95.722,148.073z
		 M95.471,143.067c0.074,0.004,0.158,0.006,0.251,0.006c4.105,0,10.756-3.547,13.095-5.705
		C104.002,137.507,96.817,141.092,95.471,143.067z M30.938,144.938l-0.318-0.008c-4.937-0.121-6.506-7.83-6.953-11.14
		c-0.37-2.747-1.201-11.823,3.645-13.282l0.353-0.106h0.368c4.061,0,7.082,4.344,7.883,11.337c0.62,5.412-0.23,12.097-4.669,13.128
		L30.938,144.938z M28.768,125.873c-0.396,1.4-0.634,4.354-0.026,8.048c0.455,2.771,1.17,4.524,1.704,5.407
		c0.768-1.891,1.076-6.716-0.319-10.849C29.681,127.162,29.187,126.334,28.768,125.873z M46.368,121.323
		c-2.045,0-3.82-1.542-5.276-4.583c-2.556-5.34-4.114-15.198-0.392-19.821c1.269-1.576,2.672-1.906,3.625-1.906
		c1.704,0,4.153,1.025,6.146,5.913c2.012,4.937,3.477,14.444-1.123,19.023C48.291,121.082,47.147,121.323,46.368,121.323z
		 M44.429,100.283c-0.954,1.473-1.2,4.643-0.62,8.229c0.567,3.508,1.688,6.135,2.477,7.303c1.038-1.636,1.375-4.701,0.853-8.153
		C46.568,103.884,45.263,101.215,44.429,100.283z M89.653,97.328c-0.246,0-0.494-0.006-0.743-0.019
		c-8.15-0.402-15.489-7.301-15.396-14.473c0.09-6.756,5.708-11.598,13.286-11.229c8.22,0.395,15.259,7.305,15.063,14.788
		C101.702,92.628,96.453,97.328,89.653,97.328z M86.009,76.589c-4.433,0-7.445,2.537-7.496,6.313
		c-0.059,4.482,5.214,9.145,10.645,9.413c4.359,0.231,7.612-2.396,7.707-6.049c0.122-4.708-4.886-9.404-10.304-9.665
		C86.375,76.593,86.191,76.589,86.009,76.589z M148.434,89.179c-4.157,0-8.624-1.989-11.948-5.32
		c-2.712-2.717-4.263-5.967-4.257-8.917c0.012-6.042,3.666-9.507,10.026-9.507h0.09c3.753,0.014,7.772,1.896,10.746,5.037
		c2.645,2.792,4.07,6.187,3.912,9.312c-0.176,3.4-0.838,7.191-6.505,9.182l-0.261,0.091l-0.275,0.033
		C149.461,89.149,148.947,89.179,148.434,89.179z M142.255,67.935v2.5c-4.164,0-5.021,1.806-5.026,4.517
		c-0.003,1.607,1.042,3.617,2.796,5.375c2.562,2.567,6.099,4.072,9.084,3.824c2.475-0.934,2.768-2.046,2.9-4.623
		c0.089-1.739-0.864-3.84-2.548-5.618c-2.022-2.135-4.757-3.467-7.138-3.475L142.255,67.935z M13.213,87.572
		c-4.173,0-6.72-5.965-7.392-11.877c-0.69-6.058,0.576-12.808,4.987-13.312c0.154-0.018,0.308-0.026,0.461-0.026
		c4.173,0,6.72,5.965,7.393,11.877c0.688,6.059-0.579,12.809-4.988,13.312C13.52,87.563,13.366,87.572,13.213,87.572z
		 M11.417,67.722c-0.519,1.109-1.046,3.737-0.628,7.407c0.418,3.672,1.522,6.115,2.277,7.079c0.519-1.109,1.046-3.737,0.629-7.408
		C13.277,71.128,12.172,68.686,11.417,67.722z M30.783,63.483c-1.913,0-4.56-1.214-6.304-7.001
		c-1.71-5.676-2.058-15.036,2.522-18.072l0.425-0.281l0.501-0.093c0.281-0.052,0.566-0.079,0.848-0.079
		c4.778,0,6.917,6.85,7.327,13.26c0.221,3.465,0.198,11.594-4.778,12.232C31.144,63.472,30.962,63.483,30.783,63.483z
		 M29.099,43.461c-0.508,1.069-0.882,2.971-0.791,5.609c0.145,4.189,1.36,7.652,2.261,8.959c0.52-1.484,0.926-5.028,0.229-9.286
		C30.339,45.938,29.624,44.259,29.099,43.461z M109.473,62.938c-4.146,0-8.419-1.975-11.445-5.282
		c-2.483-2.714-3.703-5.875-3.435-8.898c0.344-3.875,2.404-8.494,10.265-8.494c0.217,0,0.436,0.003,0.656,0.01
		c4.077,0.125,8.045,1.938,10.891,4.975c2.484,2.651,3.789,5.924,3.675,9.215l-0.012,0.179
		C119.506,59.908,115.645,62.933,109.473,62.938z M104.857,45.263c-4.127,0-5.062,1.443-5.284,3.937
		c-0.142,1.586,0.64,3.438,2.144,5.081c2.063,2.256,5.03,3.657,7.741,3.657c5.09-0.004,5.496-2.542,5.627-3.732
		c0.042-1.926-0.783-3.89-2.33-5.54c-1.914-2.043-4.677-3.312-7.39-3.395C105.196,45.266,105.026,45.263,104.857,45.263z
		 M69.67,35.589c-4.133,0-8.617-1.929-11.704-5.033c-2.263-2.276-3.5-4.937-3.485-7.491c0.055-8.432,7.461-9.144,10.249-9.412
		l0.127-0.012l0.127,0c4.822,0.029,9.771,2.127,12.913,5.476c2.11,2.248,3.192,4.883,3.047,7.419
		c-0.187,3.198-1.817,8.621-10.65,9.038C70.085,35.584,69.877,35.589,69.67,35.589z M65.078,18.643
		c-4.318,0.432-5.577,1.444-5.597,4.453c-0.007,1.195,0.733,2.629,2.031,3.936c2.249,2.261,5.609,3.686,8.548,3.549
		c4.97-0.235,5.77-2.221,5.893-4.333c0.066-1.152-0.538-2.47-1.701-3.709C72.076,20.22,68.487,18.699,65.078,18.643z
		 M124.101,33.146l-0.18-0.001c-4.166-0.047-9.043-2.483-11.86-5.923c-1.783-2.177-2.562-4.571-2.205-6.76
		c0.223-2.753,1.917-6.341,6.009-7.619l0.284-0.071c0.684-0.128,1.396-0.193,2.117-0.193c4.86,0,9.264,2.819,11.763,5.458
		c2.189,2.141,3.367,4.715,3.252,7.182C133.051,30.182,129.619,33.146,124.101,33.146z M117.22,17.66
		c-2.121,0.745-2.358,2.842-2.385,3.263l-0.039,0.31c-0.14,0.743,0.272,1.771,1.133,2.821c1.886,2.302,5.345,4.061,8.048,4.091
		l0.124,0.001c4.039,0,4.134-2.055,4.186-3.159c0.047-1.01-0.617-2.265-1.821-3.445C123.883,18.82,120.037,17.205,117.22,17.66z"/>
</g>
<g>
	<path fill="#FFC415" d="M33.941,24.295C34.343,25.626,34.295,25.361,33.941,24.295L33.941,24.295z M161.637,103.586
		c-27.738,4.264-55.425,8.836-83.143,13.214c-11.161,1.763-19.485,6.675-24.62,17.499c-6.128,12.916-18.054,34.855-18.397,35.786
		c-0.343,0.933-0.543,1.33,0,2.507c0.642,1.695,6.69,1.61,10.791,0.749c25.012-5.254,49.984-9.707,74.889-15.433
		c7.142-1.643,13.417-5.141,18.235-11.192c9.084-11.405,18.653-22.422,27.799-33.778c2.025-2.513,4.963-6.877,4.65-8.687
		C171.534,102.441,164.926,103.08,161.637,103.586z M92.803,143.938c-1.068-5.271,18.17-11.955,19.256-7.746
		C113.145,140.398,93.874,149.216,92.803,143.938z M142.98,15.414c-2.932-6.293-8.074-10.422-14.105-10.585
		S70.349,5.015,48.679,5.117C36.636,5.173,33.483,9.538,36.753,21.17c7.366,26.197,14.691,52.406,22.062,78.604
		c3.051,10.851,11.891,16.104,22.877,14.172c28.232-4.967,56.479-9.807,84.744-14.59c10.191-1.725,13.004-6.291,8.674-15.604
		C164.497,60.921,153.617,38.227,142.98,15.414z M56.981,23.079c0.036-5.583,4.086-6.563,7.988-6.938
		c7.051,0.043,13.77,5.178,13.479,10.252c-0.291,4.996-4.04,6.484-8.272,6.684C63.864,33.37,56.951,28.092,56.981,23.079z
		 M89.034,94.812c-6.841-0.338-13.097-6.076-13.021-11.943c0.072-5.369,4.56-9.055,10.667-8.764
		c6.796,0.326,12.841,6.146,12.683,12.226C99.232,91.417,94.749,95.098,89.034,94.812z M109.471,60.438
		c-6.453,0.008-12.877-5.959-12.388-11.459c0.453-5.104,3.983-6.334,8.358-6.207c6.459,0.197,12.349,5.576,12.14,11.604
		C117.118,58.72,113.893,60.434,109.471,60.438z M123.948,30.645c-5.644-0.064-12.449-5.432-11.608-9.877
		c0.109-1.76,1.128-4.558,4.27-5.539c4.136-0.776,8.789,1.555,11.604,4.527c1.681,1.646,2.653,3.544,2.569,5.346
		C130.593,29.223,127.693,30.686,123.948,30.645z M149.67,86.607c-7.225,0.851-14.953-6.033-14.941-11.66
		c0.01-4.971,2.918-7.035,7.604-7.012c6.117,0.022,12.455,6.188,12.174,11.722C154.352,82.641,153.887,85.126,149.67,86.607z
		 M55.025,102.593L33.939,24.289c0,0.002,0.001,0.004,0.002,0.006c-0.001-0.005-0.003-0.009-0.004-0.014l-0.01-0.032l0,0
		c-0.819-2.494-2.918-12.536-5.476-11.337c-0.92,0.431-3.698,6.219-3.698,6.219c-6.332,12.855-13.47,28.807-19.91,41.611
		c-3.417,6.801-3.138,13.753-1.084,20.583c7.773,25.854,15.786,51.636,23.865,77.397c0.775,2.467,2.615,8.496,4.82,8.31
		c3.203-1.212,20.87-40.397,20.87-40.397C57.568,118.744,57.283,110.604,55.025,102.593z M13.391,85.062
		c-2.174,0.246-4.451-4.071-5.086-9.65c-0.635-5.575,0.613-10.297,2.787-10.545c2.174-0.247,4.452,4.072,5.087,9.65
		C16.813,80.096,15.565,84.814,13.391,85.062z M30.681,142.432c-4.693-0.115-6.651-18.324-2.649-19.529
		C34.147,122.902,35.499,141.312,30.681,142.432z M31.007,60.969c-4.6,0.59-7.639-17.152-2.624-20.476
		C33.937,39.465,35.607,60.379,31.007,60.969z M47.549,118.212c-3.777,4.172-9.358-14.19-4.902-19.726
		C47.103,92.952,53.327,112.561,47.549,118.212z"/>
</g>
<g>
	<path fill="#FDD77A" d="M33.941,24.295C34.343,25.626,34.295,25.361,33.941,24.295L33.941,24.295z M142.98,15.414
		c-2.932-6.293-8.074-10.422-14.105-10.585S70.349,5.015,48.679,5.117C36.636,5.173,33.483,9.538,36.753,21.17
		c7.366,26.197,14.691,52.406,22.062,78.604c3.051,10.851,11.891,16.104,22.877,14.172c28.232-4.967,56.479-9.807,84.744-14.59
		c10.191-1.725,13.004-6.291,8.674-15.604C164.497,60.921,153.617,38.227,142.98,15.414z M56.981,23.079
		c0.036-5.583,4.086-6.563,7.988-6.938c7.051,0.043,13.77,5.178,13.479,10.252c-0.291,4.996-4.04,6.484-8.272,6.684
		C63.864,33.37,56.951,28.092,56.981,23.079z M89.034,94.812c-6.841-0.338-13.097-6.076-13.021-11.943
		c0.072-5.369,4.56-9.055,10.667-8.764c6.796,0.326,12.841,6.146,12.683,12.226C99.232,91.417,94.749,95.098,89.034,94.812z
		 M109.471,60.438c-6.453,0.008-12.877-5.959-12.388-11.459c0.453-5.104,3.983-6.334,8.358-6.207
		c6.459,0.197,12.349,5.576,12.14,11.604C117.118,58.72,113.893,60.434,109.471,60.438z M123.948,30.645
		c-5.644-0.064-12.449-5.432-11.608-9.877c0.109-1.76,1.128-4.558,4.27-5.539c4.136-0.776,8.789,1.555,11.604,4.527
		c1.681,1.646,2.653,3.544,2.569,5.346C130.593,29.223,127.693,30.686,123.948,30.645z M149.67,86.607
		c-7.225,0.851-14.953-6.033-14.941-11.66c0.01-4.971,2.918-7.035,7.604-7.012c6.117,0.022,12.455,6.188,12.174,11.722
		C154.352,82.641,153.887,85.126,149.67,86.607z"/>
</g>
<g>
	<path fill="#E49326" d="M161.637,103.586c-27.738,4.264-55.425,8.836-83.143,13.214c-11.161,1.763-19.485,6.675-24.62,17.499
		c-6.128,12.916-18.054,34.855-18.397,35.786c-0.343,0.933-0.543,1.33,0,2.507c0.642,1.695,6.69,1.61,10.791,0.749
		c25.012-5.254,49.984-9.707,74.889-15.433c7.142-1.643,13.417-5.141,18.235-11.192c9.084-11.405,18.653-22.422,27.799-33.778
		c2.025-2.513,4.963-6.877,4.65-8.687C171.534,102.441,164.926,103.08,161.637,103.586z M92.803,143.938
		c-1.068-5.271,18.17-11.955,19.256-7.746C113.145,140.398,93.874,149.216,92.803,143.938z"/>
</g>
</svg>
