<?xml version="1.0" encoding="utf-8"?>
<!-- Generator: Adobe Illustrator 16.0.0, SVG Export Plug-In . SVG Version: 6.00 Build 0)  -->
<!DOCTYPE svg PUBLIC "-//W3C//DTD SVG 1.1//EN" "http://www.w3.org/Graphics/SVG/1.1/DTD/svg11.dtd">
<svg version="1.1" id="Layer_1" xmlns="http://www.w3.org/2000/svg" xmlns:xlink="http://www.w3.org/1999/xlink" x="0px" y="0px"
	 width="197.5px" height="180.25px" viewBox="0 0 197.5 180.25" enable-background="new 0 0 197.5 180.25" xml:space="preserve">
<g>
	<polygon fill="#231F20" points="16.5,80.219 74.5,12.552 126.5,4.885 59.759,84.058 	"/>
</g>
<path d="M193.104,77.146c-15.434-23.729-29.531-45.276-43.097-65.874c-3.589-7.563-16.089-11.273-17.927-11.273
	c-0.109,0-0.226,0.004-0.35,0.013c-0.846,0.063-3.308,0.149-6.676,0.254c-1.531,0.047-3.25,0.099-5.089,0.154
	c-9.529,0.286-22.579,0.676-31.253,1.169c-7.979,0.452-14.869,3.75-21.065,10.084c-0.767,0.784-1.562,1.599-2.377,2.435
	c-0.421,0.432-0.848,0.87-1.281,1.315C47.653,32.208,23.317,57.685,11.96,69.596c-0.096,0.1-0.191,0.201-0.285,0.299
	c-1.121,1.176-2.106,2.21-2.939,3.084c-0.117,0.122-0.229,0.241-0.34,0.357C8.066,73.682,7.764,74,7.49,74.287
	c-0.232,0.244-0.445,0.467-0.635,0.667c-0.485,0.51-0.829,0.871-1.008,1.059c-0.086,0.091-0.135,0.143-0.145,0.153L5.586,76.3
	c-5.004,6.351-4.336,6.325-5.051,10.723c-0.153,0.886-0.386,1.68-0.486,2.598c-0.685,1.256-0.463,4.173,5.269,12.812l0.083,0.116
	c0.708,0.918,1.45,1.888,2.221,2.902c2.311,3.043,4.88,6.48,7.56,10.068c8.067,10.798,17.738,23.742,27.432,35.407
	c2.237,2.691,4.476,5.315,6.696,7.829c4.159,4.707,10.975,8.633,17.789,10.245c12.675,2.991,25.744,5.122,38.383,7.182
	c3.175,0.518,6.349,1.034,9.518,1.565l0.601,0.104c1.278,0.224,2.871,0.502,4.337,0.502c3.033,0,17.898-4.227,22.48-10.503
	c17.957-23.442,34.413-45.007,50.309-65.926C199.037,93.618,199.147,86.439,193.104,77.146z M175.798,91.916
	c-0.358,5.627-2.789,9.263-6.193,9.263l-0.16-0.002c-1.396-0.042-2.543-0.551-3.409-1.515c-1.462-1.628-2.117-4.472-1.844-8.004
	c0.343-4.346,3.23-7.75,6.572-7.75l0.146,0.002c1.169,0.034,2.189,0.521,3.032,1.446C175.293,86.841,175.97,89.231,175.798,91.916z
	 M67.343,96.635c-0.313-0.314-0.634-0.627-0.962-0.935c-0.06-0.056-0.118-0.113-0.178-0.169c-0.358-0.332-0.728-0.657-1.101-0.979
	c-0.125-0.107-0.25-0.214-0.377-0.319c-0.369-0.31-0.743-0.614-1.124-0.909c-0.109-0.085-0.221-0.165-0.332-0.248
	c-0.301-0.228-0.605-0.45-0.912-0.667c-0.151-0.107-0.302-0.214-0.454-0.318c-0.376-0.257-0.756-0.506-1.14-0.745
	c-0.157-0.098-0.315-0.189-0.473-0.284c-0.288-0.172-0.576-0.337-0.867-0.497c-0.156-0.086-0.311-0.175-0.468-0.257
	c-0.387-0.203-0.776-0.393-1.166-0.572c-0.17-0.079-0.341-0.153-0.512-0.227c-0.326-0.141-0.652-0.273-0.979-0.396
	c-0.094-0.035-0.188-0.08-0.281-0.114c1.401-0.085,2.375-0.184,2.73-0.3c0.216-0.07,0.456-0.171,0.708-0.288
	c0.079-0.037,0.163-0.08,0.245-0.121c0.186-0.092,0.376-0.192,0.577-0.304c0.096-0.054,0.193-0.108,0.292-0.167
	c0.214-0.125,0.436-0.262,0.663-0.406c0.086-0.055,0.169-0.105,0.257-0.163c0.316-0.207,0.641-0.427,0.976-0.663
	c0.054-0.038,0.11-0.081,0.166-0.12c0.285-0.204,0.575-0.416,0.869-0.637c0.113-0.085,0.227-0.172,0.341-0.26
	c0.247-0.189,0.495-0.382,0.745-0.581c0.118-0.094,0.236-0.188,0.355-0.284c0.278-0.225,0.556-0.454,0.834-0.687
	c0.083-0.069,0.165-0.136,0.248-0.206c0.359-0.304,0.717-0.613,1.072-0.926c0.017-0.015,0.035-0.029,0.052-0.044
	c-1.202,2.288-1.945,4.719-1.652,7.17c0.283,2.37,1.04,4.67,2.009,6.78C67.453,96.739,67.396,96.688,67.343,96.635z M63.013,110.566
	c1.196,0.947,2.327,1.942,3.293,2.886c0.151,0.15,0.309,0.303,0.447,0.446c0.068,0.068,0.131,0.135,0.196,0.203
	c1.446,1.523,2.189,2.656,2.276,3.078c0,0-0.007-0.033-0.007-0.091c0-0.038,0.018-0.071,0.022-0.109
	c0.06-0.538,0.517-0.982,0.772-1.026v1.991c-0.048,0.001-0.085,0.008-0.137,0.006c-8.189-0.099-19.057-13.683-15.107-13.691
	c0.002,0,0.004,0,0.006,0v2C56.438,106.259,59.714,107.983,63.013,110.566z M67.49,147.449c5.296,0.816,11.162,5.935,12.399,8.164
	C75.532,155.473,69.572,150.26,67.49,147.449z M48.995,145.145c4.515,0,10.854,5.42,12.38,8.043
	c-4.086-0.5-11.364-5.63-12.816-8.022C48.702,145.15,48.847,145.145,48.995,145.145z M59.419,66.141
	c3.019-2.252,5.863-3.26,7.343-3.26c0.269,0,0.444,0.034,0.539,0.062c0.049,0.808-1.33,3.658-5.324,6.637
	c-3.019,2.253-5.863,3.261-7.343,3.261c-0.269,0-0.444-0.033-0.54-0.062c-0.006-0.101,0.01-0.234,0.051-0.396
	C54.432,71.255,55.926,68.747,59.419,66.141z M76.811,23.655c-3.019,2.253-5.864,3.261-7.343,3.261c-0.269,0-0.445-0.033-0.54-0.062
	c-0.047-0.811,1.333-3.66,5.326-6.637c3.019-2.253,5.864-3.262,7.344-3.262c0.269,0,0.444,0.033,0.539,0.062
	C82.184,17.827,80.805,20.677,76.811,23.655z M16.979,105.07c0.1-0.005,0.206,0.002,0.308,0.001v1.991
	c5.048,0,13.204,7.568,13.576,9.557c-0.005-0.025-0.005-0.051-0.005-0.074c0-0.081,0.029-0.155,0.047-0.232
	c0.014-0.056,0.014-0.114,0.035-0.167c0.018-0.044,0.048-0.078,0.071-0.12c0.167-0.307,0.431-0.535,0.596-0.566v1.999
	c-0.004,0-0.008,0.001-0.012,0.001C23.76,117.225,14.362,105.32,16.979,105.07z M33.361,105.09c0.017,0,0.033,0.002,0.05,0.002
	v1.998c6.381,0,14.598,7.782,14.93,9.797l-0.003-0.059c0-0.049,0.022-0.092,0.03-0.139c0.078-0.496,0.519-0.908,0.783-0.944v1.998
	c-0.009,0-0.016,0.002-0.025,0.002C40.627,117.538,29.5,105.104,33.361,105.09z M89.272,149.517
	c4.498,1.145,9.964,5.808,12.134,8.503C96.539,156.925,91.212,152.218,89.272,149.517z M87.564,147.267l0.019,1.99
	c-0.007,0.001-0.013,0.002-0.019,0.003V147.267L87.564,147.267z M97.583,74.556v1.996c4.587,0,7.327,3.614,7.327,9.671
	c0.006,2.77-1.083,5.452-2.985,7.358c-1.573,1.576-3.5,2.398-5.445,2.33c-3.492-0.145-6.002-3.561-6.103-8.309
	c-0.074-3.402,1.229-6.905,3.4-9.141c1.186-1.222,2.511-1.9,3.732-1.91L97.583,74.556L97.583,74.556z M135.334,32.176l0.213-0.004
	c3.461,0,6.008,3.524,6.057,8.38c0.056,5.599-2.692,10.032-6.259,10.092l-0.147,0.001c-5.581,0-6.431-5.905-6.44-9.424
	C128.745,35.968,131.388,32.333,135.334,32.176z M135.469,128.032l0.14,0.002c5.26,0.209,6.036,5.521,6.03,8.667
	c-0.012,5.068-3.273,9.175-7.424,9.35c-1.379,0.065-2.49-0.329-3.339-1.186c-1.237-1.248-1.904-3.512-1.877-6.372
	C129.052,132.921,132.075,128.032,135.469,128.032z"/>
<g>
	<path fill="#231F20" d="M140.167,13.219l50.667,78.333l-40,52l-17.939,21.667c0,0-38.061-35.57-38.061-36.953
		c0-1.381-13.334-39.047-13.334-39.047s11.667-31.667,13.667-32.667S140.167,13.219,140.167,13.219z"/>
</g>
<g>
	<rect x="37.75" y="76.875" fill="#231F20" width="39.263" height="30.5"/>
	<path d="M79.013,109.375H35.75v-34.5h43.263V109.375z M39.75,105.375h35.263v-26.5H39.75V105.375z"/>
</g>
<g>
	<path fill="#231F20" d="M23.167,118.552c0,0-13-19-11-19s50.165,0,50.165,0l51.835,68L53.5,157.219L23.167,118.552z"/>
</g>
<g>
	<path fill="#FFC415" d="M191.427,78.237c-14.303-21.99-28.659-43.953-43.091-65.865c-6.098-9.261-11.387-9.605-18.62-1.179
		C111.139,32.84,92.551,54.475,74.281,76.38c-3.014,3.617-7.358,8.71-6.799,13.396s3.188,9.234,5.807,12.688
		c16.327,21.583,32.959,42.937,49.545,64.317c5.539,7.137,12.455,7.078,17.994-0.146c16.805-21.938,33.58-43.91,50.304-65.92
		C196.908,93.114,196.995,86.799,191.427,78.237z M96.396,97.909c-4.568-0.188-7.896-4.441-8.02-10.263
		c-0.145-6.677,4.307-13.056,9.114-13.094c5.771-0.049,9.419,4.479,9.419,11.667C106.922,92.646,101.975,98.141,96.396,97.909z
		 M135.255,30.178c4.751-0.188,8.287,4.198,8.349,10.354c0.067,6.763-3.515,12.033-8.223,12.112
		c-5.424,0.097-8.604-4.108-8.624-11.418C126.742,34.884,130.206,30.379,135.255,30.178z M134.299,148.049
		c-4.596,0.192-7.357-3.429-7.3-9.574c0.065-6.916,4.049-12.623,8.688-12.438c5.049,0.2,7.963,4.11,7.951,10.67
		C143.624,142.842,139.518,147.829,134.299,148.049z M177.794,92.043c-0.44,6.918-3.728,11.273-8.409,11.133
		c-4.938-0.146-7.729-4.676-7.188-11.675c0.433-5.473,4.312-9.723,8.771-9.59C175.234,82.036,178.157,86.379,177.794,92.043z
		 M68.357,100.736c-4.123-5.081-11.312-10.667-17.334-10.696c-16.147-0.079-47.647-2.079-49,0.355
		c-1.525,1.156,4.961,10.932,4.961,10.932c10.571,13.7,27.704,37.854,43.823,56.104c4.074,4.61,10.688,8.188,16.75,9.623
		c15.732,3.713,31.8,6.047,47.773,8.721c2.357,0.396,6.62,1.322,7.363-0.569c0.746-1.896-0.967-5.349-2.426-7.276
		C103.164,145.38,86.205,122.698,68.357,100.736z M54.77,104.259c6.188-0.01,20.951,13.917,15.107,13.691
		C61.688,117.852,50.82,104.268,54.77,104.259z M31.594,117.459c-7.834-0.234-17.232-12.139-14.615-12.389
		C24.091,104.7,36.93,117.479,31.594,117.459z M33.361,105.09c9.007-0.047,20.818,12.698,15.763,12.655
		C40.627,117.538,29.5,105.104,33.361,105.09z M62.001,155.227c-6.299,0.021-21.035-11.271-13.667-12.049
		C55.702,142.404,68.3,155.208,62.001,155.227z M80.746,157.579c-7.258,0.806-19.389-11.938-15.098-12.229
		C74.07,144.924,86.241,156.645,80.746,157.579z M103.27,160.251c-8.994-0.096-20.396-13.151-15.619-12.989
		C95.546,147.529,108.077,160.312,103.27,160.251z M58.131,86.797c2.276-0.741,8.693-5.866,12.266-9.978
		c19.901-22.927,39.408-46.191,58.955-69.428c0,0,5.834-5.631,2.528-5.384c-3.307,0.248-28.979,0.779-43.054,1.579
		c-8.088,0.458-14.482,4.102-19.749,9.486C48.242,34.37,8.016,76.628,7.157,77.538c-5.138,6.521-4.485,8.231-3.978,9.294
		C3.686,87.894,55.855,87.538,58.131,86.797z M73.057,18.614c4.543-3.39,9.336-4.65,10.705-2.816
		c1.368,1.833-1.207,6.068-5.755,9.46c-4.546,3.392-9.337,4.649-10.706,2.815C65.934,26.241,68.509,22.006,73.057,18.614z
		 M58.223,64.538c4.543-3.389,9.336-4.648,10.704-2.814c1.369,1.832-1.206,6.068-5.754,9.459c-4.546,3.393-9.337,4.65-10.706,2.816
		C51.1,72.167,53.675,67.931,58.223,64.538z"/>
</g>
<g>
	<path fill="#FDD77A" d="M58.131,86.797c2.276-0.741,8.693-5.866,12.266-9.978c19.901-22.927,39.408-46.191,58.955-69.428
		c0,0,5.834-5.631,2.528-5.384c-3.307,0.248-28.979,0.779-43.054,1.579c-8.088,0.458-14.482,4.102-19.749,9.486
		C48.242,34.37,8.016,76.628,7.157,77.538c-5.138,6.521-4.485,8.231-3.978,9.294C3.686,87.894,55.855,87.538,58.131,86.797z
		 M73.057,18.614c4.543-3.39,9.336-4.65,10.705-2.816c1.368,1.833-1.207,6.068-5.755,9.46c-4.546,3.392-9.337,4.649-10.706,2.815
		C65.934,26.241,68.509,22.006,73.057,18.614z M58.223,64.538c4.543-3.389,9.336-4.648,10.704-2.814
		c1.369,1.832-1.206,6.068-5.754,9.459c-4.546,3.393-9.337,4.65-10.706,2.816C51.1,72.167,53.675,67.931,58.223,64.538z"/>
</g>
<g>
	<path fill="#E49326" d="M68.357,100.736c-4.123-5.081-11.312-10.667-17.334-10.696c-16.147-0.079-47.647-2.079-49,0.355
		c-1.525,1.156,4.961,10.932,4.961,10.932c10.571,13.7,27.704,37.854,43.823,56.104c4.074,4.61,10.688,8.188,16.75,9.623
		c15.732,3.713,31.8,6.047,47.773,8.721c2.357,0.396,6.62,1.322,7.363-0.569c0.746-1.896-0.967-5.349-2.426-7.276
		C103.164,145.38,86.205,122.698,68.357,100.736z M54.77,104.259c6.188-0.01,20.951,13.917,15.107,13.691
		C61.688,117.852,50.82,104.268,54.77,104.259z M31.594,117.459c-7.834-0.234-17.232-12.139-14.615-12.389
		C24.091,104.7,36.93,117.479,31.594,117.459z M33.361,105.09c9.007-0.047,20.818,12.698,15.763,12.655
		C40.627,117.538,29.5,105.104,33.361,105.09z M62.001,155.227c-6.299,0.021-21.035-11.271-13.667-12.049
		C55.702,142.404,68.3,155.208,62.001,155.227z M80.746,157.579c-7.258,0.806-19.389-11.938-15.098-12.229
		C74.07,144.924,86.241,156.645,80.746,157.579z M103.27,160.251c-8.994-0.096-20.396-13.151-15.619-12.989
		C95.546,147.529,108.077,160.312,103.27,160.251z"/>
</g>
</svg>
